(supertux-level
  (version 3)
  (name (_ "The Journey Begins"))
  (author "STVE Team")
  (license "CC-BY-SA 4.0 International")
  (allow-item-pocket "inherit")
  (icon "")
  (icon-locked "")
  (statistics
    (enable-coins #t)
    (enable-secrets #t)
  )
  (sector
    (name "main")
    (ambient-light
      (color 1 1 1)
    )
    (background
      (name "Snowy_Hills")
      (scroll-offset-y 350)
      (color 1 1 1 0.8)
      (alignment "bottom")
      (speed 0.05)
      (image-top "images/background/misc/transparent_up.png")
      (image "/images/background/antarctic/arcticmountains.png")
      (image-bottom "images/background/misc/transparent_up.png")
      (z-pos -301)
    )
    (background
      (color 1 1 1)
      (alignment "bottom")
      (speed 0.5)
      (image "/images/background/antarctic/SnowMountains.png")
      (z-pos -298)
    )
    (background
      (scroll-offset-y -150)
      (color 1 1 1)
      (alignment "bottom")
      (speed 0.25)
      (image "/images/background/antarctic/SnowMountains.png")
    )
    (bonusblock
      (type "orange")
      (z-pos 51)
      (x 4896)
      (y 960)
    )
    (bouncingsnowball
      (z-pos 50)
      (x 7136)
      (y 1312)
      (glinting #f)
    )
    (camera
      (name "Camera")
      (mode "normal")
    )
    (decal
      (z-pos -100)
      (sprite "/images/decal/explanations/billboard-star.png")
      (x 5152)
      (y 928)
    )
    (firefly
      (z-pos 0)
      (x 7712)
      (y 1280)
    )
    (gradient
      (top_color 0.5 0.7 1)
      (bottom_color 1 1 1)
      (z-pos -400)
    )
    (gradient
      (top_color 0.5 0.7 1 0.2)
      (bottom_color 1 1 1 0.2)
      (z-pos -299)
    )
    (jumpy
      (z-pos 50)
      (x 7296)
      (y 1248)
      (glinting #f)
    )
    (mrbomb
      (z-pos 50)
      (x 1920)
      (y 960)
      (glinting #f)
    )
    (mrbomb
      (z-pos 50)
      (x 4480)
      (y 896)
      (glinting #f)
    )
    (mriceblock
      (z-pos 50)
      (x 6944)
      (y 1344)
      (glinting #f)
    )
    (music
      (name "Music_Object")
      (file "/music/antarctic/voc-daytime.music")
    )
    (secretarea
      (fade-tilemap "secret")
      (width 128)
      (height 384)
      (x 5568)
      (y 1056)
    )
    (smartball
      (z-pos 50)
      (x 896)
      (y 1056)
      (glinting #f)
    )
    (snowball
      (z-pos 50)
      (x 6656)
      (y 1216)
      (glinting #f)
    )
    (snowman
      (z-pos 50)
      (x 1824)
      (y 928)
      (glinting #f)
    )
    (spawnpoint
      (name "main")
      (x 64)
      (y 992)
    )
    (spawnpoint
      (x 3424)
      (y 1472)
    )
    (spawnpoint
      (x 3424)
      (y 1024)
    )
    (spawnpoint
      (x 5824)
      (y 1088)
    )
    (spiky
      (z-pos 50)
      (x 6496)
      (y 1248)
      (glinting #f)
    )
    (sspiky
      (z-pos 50)
      (x 960)
      (y 1248)
      (glinting #f)
    )
    (sspiky
      (z-pos 50)
      (direction "right")
      (x 6064)
      (y 1088)
      (glinting #f)
    )
    (tilemap
      (solid #f)
      (z-pos -100)
      (name "MidGround_Tiles")
      (width 350)
      (height 50)
      (tiles -13540 0 122 209 123 -347 0 124 210 125 -347 0 124 210 125 -347 0 124 210 125 -347 0 124 210 125 -2557 0)
    )
    (tilemap
      (solid #f)
      (z-pos -150)
      (name "BackGround_Tiles")
      (width 350)
      (height 50)
      (tiles -17500 0)
    )
    (tilemap
      (solid #t)
      (z-pos 0)
      (name "Main_Tiles")
      (width 350)
      (height 50)
      (tiles -9465 0 -2 83 -41 0 -2 83 -30 0 7 -16 8 9 -68 0 103 -263 0 13 3990 -3 14 3989 14 3990 14 3990 -7 14 15 -8 0 -2 83 -320 0 7 8 22 -15 11 4334 4335 -26 0 83 78 -2 83 102 83 78 83 -232 0 83 2948 83 -27 0 7 -6 8 9 -26 0 13 14 23 -3 11 19 11 19 -5 11 2929 2930 3991 17 4337 -9 0 44 -2 0 44 -32 0 83 0 83 -19 0 7 -3 8 9 -225 0 13 -4 14 3989 14 15 -24 0 7 8 22 -5 11 19 -6 11 2935 2931 -11 0 44 -2 0 44 -7 0 -4 83 -7 0 44 -2 0 44 -32 0 7 8 114 -3 14 15 -171 0 -7 8 9 -42 0 7 -3 8 22 -6 11 4343 -24 0 13 3989 23 -11 11 2940 2936 -3 0 44 -2 0 44 -25 0 44 -2 0 44 -3 0 44 -28 0 7 8 114 14 23 -2 11 4334 4335 -171 0 -3 14 -2 3990 -2 14 15 -42 0 13 3988 3989 14 23 -6 11 4347 -15 0 7 -8 8 22 -13 11 2941 0 44 -3 0 44 -19 0 44 0 44 -41 0 13 14 23 -3 11 2935 4337 -172 0 -6 11 4334 4335 -30 0 83 102 -6 0 7 -3 8 22 -9 11 2940 4349 -15 0 13 -6 14 3990 14 23 -12 11 30 2942 -24 0 44 0 44 -41 0 7 22 -4 11 2935 2936 -12 0 7 9 -159 0 -5 11 30 4337 -23 0 7 8 2913 2914 -12 0 13 14 -2 3990 23 -9 11 2941 -5 0 7 -5 8 9 -4 0 4332 4333 -20 11 12 -61 0 7 -7 8 114 23 -3 11 2940 2936 -2 0 7 -10 8 114 113 -3 8 2913 2914 -154 0 -5 11 12 -8 0 -3 83 -13 0 13 14 2915 2916 1832 1827 -6 0 7 -3 8 22 -12 11 30 2942 -5 0 13 -5 14 15 -5 0 4336 31 -19 11 12 -61 0 13 -5 14 3990 14 23 -4 11 2941 -2 0 7 114 14 3989 3990 -7 14 23 20 -3 14 2915 2916 3139 3140 -152 0 -5 11 12 -24 0 4332 4333 11 1835 1836 1831 2917 2918 -4 8 114 3990 -2 14 23 -12 11 12 -6 0 4332 4333 -2 11 30 17 18 -6 0 10 -19 11 21 9 -60 0 4332 4333 -10 11 30 2942 -2 0 13 23 -10 11 19 -5 11 1835 3143 3144 3149 -151 0 -5 11 21 -5 8 9 -19 0 4336 31 -2 11 1835 2919 2920 14 3990 -2 14 23 19 -15 11 12 -7 0 4336 31 11 21 -8 2178 22 -19 11 20 15 -61 0 4336 2933 -9 11 12 -3 0 4332 4333 -2 11 2929 2930 17 2925 2926 -3 11 19 -7 11 3147 3151 3152 -6 0 2909 2910 2913 2914 -51 0 7 -9 8 9 -78 0 19 -4 11 20 -5 14 113 -20 8 22 -26 11 21 -8 2178 22 11 20 14 3989 3990 -5 14 23 -18 11 19 11 12 -62 0 2934 2933 -8 11 21 9 -3 0 4336 17 3991 2931 -3 0 2928 2933 -7 11 19 -3 11 3155 3156 2917 2918 -2 8 2921 2922 2911 2912 2915 2916 3139 3140 -24 0 -3 83 -5 0 -3 83 -14 0 13 -6 14 -2 3990 14 15 -78 0 -11 11 20 -2 14 3990 -3 14 3989 -8 14 3990 -4 14 23 -26 11 20 -6 14 3989 14 23 -25 11 19 -5 11 12 -63 0 2934 2937 -7 11 20 113 9 -10 0 2934 2937 -5 11 19 -3 11 19 11 1835 2919 2920 -2 14 2923 2924 1834 -2 11 1835 3143 3144 3149 -14 0 7 8 9 -25 0 7 9 -4 0 10 -9 11 12 -78 0 -21 11 19 -37 11 19 -10 11 19 -8 11 19 -12 11 19 -7 11 12 -64 0 2938 -8 11 20 113 9 -5 0 128 -4 0 2938 -23 11 3147 3151 3152 -6 0 2909 2910 -5 8 114 14 15 -25 0 13 15 -4 0 10 -9 11 12 -78 0 -20 11 19 -10 11 19 -68 11 12 -64 0 2939 2937 -8 11 20 113 9 -9 0 2939 31 -10 11 19 -3 11 19 -8 11 3155 3156 2917 2918 -2 8 2921 2922 2911 2912 -5 14 23 11 21 -20 8 9 -4 0 10 12 -4 0 10 -9 11 12 -78 0 -32 11 19 -11 11 19 -26 11 19 -28 11 12 -65 0 2938 -9 11 20 113 8 9 -6 0 2909 2910 22 -24 11 1835 2919 2920 -2 14 2923 2924 1834 -8 11 20 -2 14 3990 -9 14 3990 -2 14 3989 14 3988 -2 14 15 -4 0 10 12 -4 0 10 19 -7 11 19 12 -78 0 -100 11 12 -5 0 2948 -4 83 -55 0 2939 31 -3 11 19 -5 11 20 3990 113 -4 8 2921 2922 2911 2912 23 -61 11 4343 -4 0 10 12 -4 0 10 -9 11 12 -78 0 -15 11 19 -4 11 -2 19 -37 11 19 -16 11 19 -2 11 19 -20 11 12 -66 0 10 -11 11 20 14 3988 14 3989 2923 2924 1834 -63 11 4347 -4 0 10 12 -4 0 10 -9 11 12 -78 0 -75 11 19 -24 11 21 2913 2914 -64 0 10 -21 11 19 -59 11 2940 4349 -4 0 10 12 -4 0 10 -5 11 19 -3 11 12 -78 0 -14 11 19 -35 11 19 -49 11 20 2915 2916 2917 2918 -10 8 9 -51 0 10 -70 11 19 -10 11 2941 -5 0 10 12 -4 0 10 -9 11 12 -78 0 -54 11 19 -47 11 1835 2919 2920 3990 -2 14 3989 -4 3990 3989 3988 15 -51 0 10 -16 11 19 -56 11 19 -6 11 2935 2942 -5 0 10 12 -4 0 10 -2 11 19 -6 11 12 -78 0 -22 11 19 -50 11 19 -13 11 19 -12 11 19 -14 11 12 -51 0 10 -30 11 19 -43 11 19 -4 11 2940 2936 -6 0 10 12 -4 0 10 11 19 -7 11 12 -78 0)
    )
    (tilemap
      (solid #t)
      (z-pos -1)
      (width 350)
      (height 50)
      (tiles -10513 0 2067 -4 2068 2069 -344 0 2072 -4 2073 2074 -94 0 2067 -6 2068 2069 -241 0 2052 2056 2060 -3 2058 2059 -91 0 2067 2068 2069 2072 -6 2073 2074 -12 0 2067 -8 2068 2069 -219 0 2057 2065 -2 2058 2065 2058 2059 -2 0 2067 -7 2068 2069 -72 0 2067 -6 2068 2069 2072 2073 2074 2057 2065 2061 -2 2058 2071 2066 2059 -12 0 2072 -8 2073 2074 -7 0 2067 -5 2068 2069 -204 0 2052 2056 2066 2061 -3 2058 2055 2054 0 2072 -7 2073 2074 -72 0 2072 -6 2073 2074 2057 2058 2059 2062 2051 -5 2058 2059 -3 0 2067 -4 2068 2069 -3 0 2057 2070 2061 2065 -2 2058 -2 2070 2061 2059 -7 0 2072 -5 2073 2074 -204 0 2057 2060 -3 2058 2070 -2 2058 2055 2053 2056 2065 2070 -2 2058 2071 2070 2066 2059 -72 0 2057 -3 2058 2061 -2 2070 2059 2057 2070 2059 0 2057 -3 2058 2061 2066 2059 -3 0 2072 -4 2073 2074 -3 0 2062 2051 2058 2065 2061 2058 2070 2058 2050 2064 -7 0 2057 2066 2058 2066 -2 2058 2059 -204 0 2057 2058 2060 2058 2061 2065 2060 2058 2060 2061 2065 2060 2058 2070 2058 2070 2058 2070 2055 2054 -70 0 2052 2056 2058 2060 -3 2058 2060 2059 2057 2070 2059 0 2062 2051 -2 2058 2066 2058 2055 2054 0 2052 2056 2066 2058 2066 2065 2059 -4 0 2062 2051 2066 2058 2065 2058 2066 2059 -8 0 2057 2066 2070 2066 2061 2058 2059 -202 0 2052 2053 2056 2058 2070 2058 2071 2061 2070 2058 2070 2061 2058 2060 2066 2070 -5 2058 2055 2054 -68 0 2052 2056 2065 2075 -3 2079 2076 2050 2064 2057 2070 2059 -2 0 2057 2066 2058 2070 2060 2058 2055 2053 2056 2058 2061 -2 2058 2050 2064 -5 0 2057 2070 2060 2061 -2 2058 2059 -8 0 2057 2058 2060 2071 -2 2058 2059 -201 0 2052 2056 2060 2058 -2 2060 2058 2060 2061 -3 2058 2061 2065 2061 -2 2058 2066 2060 2058 2065 -2 2058 2055 2053 2054 -64 0 2052 2053 2056 -2 2058 2077 -3 2073 2078 2059 0 2057 2061 2059 0 2052 2056 2060 2058 2070 2066 -2 2065 2066 2058 2061 -2 2058 2050 2064 -5 0 2052 2056 -2 2058 -2 2060 2058 2059 -7 0 2052 2056 -4 2058 2066 2055 2054 -200 0 2057 2058 2066 2070 2065 -3 2058 2065 -3 2058 2066 2058 2070 2058 2061 2066 -2 2058 2060 2065 -2 2058 2071 2059 -63 0 2052 2056 2061 2058 -2 2065 2058 2070 -2 2058 2066 2055 2054 2057 2058 2055 2053 2056 -2 2058 -2 2070 2071 -2 2058 2066 -4 2058 2059 -6 0 2057 2060 2058 2061 2058 -2 2066 2059 -6 0 2052 2056 2058 2070 2058 2066 -3 2058 2055 2054 -199 0 2057 -2 2058 2065 2058 2070 2061 2070 2058 2066 2060 2070 -6 2058 2066 2061 -5 2058 2059 -63 0 2057 2058 2060 2058 2066 2070 2066 2058 2061 2066 2061 2058 2055 2056 2065 2070 -4 2058 2061 2066 2058 2060 2058 2061 -2 2060 2065 2050 2064 -6 0 2057 2058 2061 2058 2060 2058 2061 2059 -5 0 2052 2056 2058 2060 -2 2065 2061 -2 2058 2065 2058 2059 -199 0 2062 -9 2063 2051 2070 2066 2060 2058 2061 -2 2058 2066 2058 2061 2050 -3 2063 2064 -63 0 2062 2051 -2 2058 2061 -2 2070 2061 -4 2058 2070 2060 -2 2058 2066 -2 2058 2066 2058 2061 2058 2066 -2 2060 2061 2070 2058 2059 -5 0 2052 2053 2056 2058 2070 2058 2061 2066 2060 2059 -4 0 2052 2056 -2 2058 2070 2061 2058 2060 2066 -3 2058 2055 2054 -208 0 2062 -10 2063 2064 -68 0 2057 -2 2061 2058 2065 2066 2061 2058 2061 -2 2066 2065 2060 2058 2066 2058 2070 2060 2058 2061 -5 2058 2061 -2 2058 2059 -3 0 2052 2053 2056 -2 2070 -2 2058 -2 2066 2058 2061 2055 -4 2053 2056 2058 2066 2058 2060 -2 2065 2061 -2 2058 2070 2061 2058 2055 2054 -287 0 2057 2070 2058 2066 2058 -2 2060 2058 2066 -6 2058 2066 2061 -3 2058 2071 -2 2058 2060 2071 2061 2060 2065 2055 -3 2053 2056 2070 -2 2058 2065 2060 2066 2065 -2 2058 2065 2070 2065 -3 2058 2071 2058 -2 2060 -2 2058 2060 2070 2058 2061 2070 -2 2058 2065 2055 2054 -285 0 2052 2056 2070 -2 2058 2065 -3 2058 2066 2058 2065 2070 -8 2058 2060 2066 2058 2070 -2 2061 2066 -6 2058 2060 2058 2065 2058 2061 2058 2065 2060 -2 2070 2061 -2 2066 2060 2066 2070 2066 2060 2071 -2 2058 -2 2060 -3 2058 2066 2065 2061 2060 2055 2053 2054 -283 0 2057 2058 2065 -2 2058 2066 2058 2061 2065 2061 2058 2070 2058 2065 -2 2058 2060 2065 2070 2058 2061 2058 2061 -3 2058 2060 2058 2066 2070 2058 2070 2071 -5 2058 2070 2058 2065 2070 2066 -3 2058 2060 2061 -3 2058 -2 2061 -2 2058 2065 2058 2061 -2 2058 2066 2058 2065 2058 2070 2065 2055 2054 -282 0 2062 2051 2058 2065 2070 2066 2060 2070 -3 2058 2070 2061 2058 2061 2058 2061 2058 2060 2058 2065 2060 -2 2058 2060 2070 -3 2058 2066 -2 2060 2070 2065 2066 -2 2060 -2 2058 2065 2066 2060 2065 2061 -3 2058 2070 -3 2058 2066 2058 2065 2070 -5 2058 -2 2071 -2 2058 2060 2070 2058 2055 2053 2054 -281 0 2057 2060 2058 2060 2061 -2 2058 2060 2065 -2 2066 2061 -2 2058 2070 2061 -2 2058 2070 -2 2066 2070 2058 2065 -2 2058 2060 2070 2061 2065 2058 2066 2058 -2 2061 2058 2071 -2 2058 2071 2058 2066 -2 2058 2066 -3 2058 2065 -4 2058 2070 2061 2058 2065 2058 2066 2058 2071 2061 -3 2058 2060 2070 2060 2055 -2 2053 2054 -277 0 2052 2056 2065 2058 2070 -2 2058 2071 2061 -2 2058 2060 -3 2061 -4 2060 2061 2065 2058 2060 2058 -2 2070 2058 2061 2058 2060 2070 2065 2066 -2 2058 2065 2061 2070 2066 -2 2058 2066 2070 2065 -3 2058 2066 -3 2058 2066 2058 2066 -2 2058 2060 2061 2065 2066 -2 2058 2060 2070 -2 2058 -2 2070 2058 2061 -2 2058 2055 2053 2054 -275 0 2057 2058 -2 2060 2058 2060 -2 2065 2060 2058 2065 -2 2058 2061 2070 -2 2058 2060 2066 2058 2061 -2 2058 2070 -2 2058 2070 2066 2070 -3 2058 2066 2065 2058 2066 2058 2070 -2 2058 -2 2060 -7 2058 2066 2058 2060 -2 2061 -2 2058 2071 2065 -2 2058 2066 2061 2060 2061 2065 2058 2060 -3 2058 2061 -2 2058 2066 2055 2053 2054 -176 0)
    )
    (tilemap
      (solid #f)
      (z-pos 100)
      (width 350)
      (height 50)
      (tiles -12250 0 2052 2053 2054 -347 0 2056 2065 2059 -88 0 2052 -2 2053 2054 -255 0 2058 2050 2064 -87 0 2052 2056 2066 2061 2059 -255 0 2050 2064 -88 0 2057 2060 2070 2065 2059 -255 0 2055 2054 -47 0 2052 -3 2053 2054 -32 0 2052 -3 2053 2056 2058 2065 2060 2059 -255 0 2065 2059 -45 0 2052 2053 2056 2061 2070 2066 2055 2054 -30 0 2052 2056 -3 2058 2070 2066 2058 2050 2064 -255 0 2066 2055 2054 -34 0 2052 -2 2053 2054 -5 0 2052 2056 2060 2065 -2 2058 2070 2058 2059 -28 0 2052 2053 2056 2058 2061 2058 2060 -2 2058 2060 2059 -97 0 2052 2053 2054 -156 0 2070 2058 2055 2054 -7 0 2052 -2 2053 2054 -21 0 2052 2056 -2 2058 2059 -5 0 2057 2066 -6 2058 2055 2053 2054 -25 0 2052 2056 -6 2058 -2 2071 2050 2064 -96 0 2052 2056 2060 2059 -156 0 2058 2066 2058 2059 -7 0 2057 2058 2065 2055 2054 -10 0 2052 -3 2053 2054 -4 0 2052 2056 2061 -2 2058 2059 -5 0 2057 -2 2058 2065 2066 -2 2058 2070 2058 2070 2055 2054 -19 0 2052 -4 2053 2056 2058 2066 2060 2061 2058 2066 2071 2061 2050 2064 -97 0 2057 2061 2058 2059 -156 0 -2 2058 2066 2059 -7 0 2057 2065 2066 2061 2055 -10 2053 2056 2061 2070 2058 2059 -4 0 2057 2060 2061 2058 2061 2059 -5 0 2057 2066 2061 2066 2061 2066 2061 2058 2071 2060 2065 2055 -4 2053 2054 -9 0 2052 -2 2053 0 2053 2056 2058 2060 2070 2061 2058 2060 2071 2065 2066 -3 2058 2050 2064 -80 0 2052 -2 2053 2054 -13 0 2052 2056 2058 2050 2064 -156 0 2051 2065 2061 2059 -7 0 2057 2060 -3 2058 2070 -3 2058 2070 2058 2065 2070 -2 2058 2071 2070 2066 2065 2059 -4 0 2057 2058 2070 2071 2050 2064 -5 0 2057 2070 -2 2058 -2 2066 2058 2060 2058 -2 2060 -2 2058 2060 2058 2066 2055 2054 -7 0 2052 2056 2065 -2 2058 2060 -2 2058 2060 2066 -3 2058 2066 -2 2061 2058 2050 2063 2064 -80 0 2052 2056 -2 2058 2055 2054 -11 0 2052 2056 2060 2058 2059 -157 0 2062 -2 2063 2064 -7 0 2062 2051 2060 2058 2061 2065 2060 2058 2060 2061 2065 2060 2058 2070 2058 2070 2058 2070 2050 2064 -4 0 2062 -3 2063 2064 -6 0 2062 2051 2060 -3 2058 2060 2058 2070 2071 2065 -3 2058 2065 -2 2058 2059 -7 0 2057 2058 2060 2070 2060 2058 -2 2070 -2 2058 2070 2066 2070 -2 2058 2050 2063 2064 -81 0 2052 2056 2058 2065 2060 2066 2059 -11 0 2057 2060 2058 2050 2064 -169 0 2062 -16 2063 2064 -17 0 2062 2063 2051 2060 2071 2058 2065 2070 2066 2058 -2 2061 2058 2061 -2 2066 2059 -7 0 2057 2061 2070 2058 2066 -4 2058 2060 2058 2070 2058 2050 2063 2064 -83 0 2057 2065 2058 2061 2050 2063 2064 -11 0 2057 2065 2050 2064 -207 0 2062 -3 2063 2051 2060 2058 2060 2061 2058 2066 -2 2058 2050 2064 -7 0 2062 -12 2063 2064 -85 0 2062 -3 2063 2064 -13 0 2062 2063 2064 -212 0 2062 -8 2063 2064 -287 0)
    )
    (tilemap
      (solid #f)
      (z-pos 101)
      (name "secret")
      (width 350)
      (height 50)
      (tiles -11377 0 11 3250 -346 0 -3 11 2128 -345 0 -4 11 2128 -344 0 -5 11 3254 -344 0 -6 11 -343 0 -6 11 19 -7 11 -336 0 -5 11 19 -9 11 -335 0 -16 11 -334 0 -7 11 19 -9 11 -333 0 -17 11 -333 0 -17 11 -335 0 -15 11 -337 0 -13 11 -339 0 -3 11 19 -6 11 -341 0 -8 11 -1213 0)
    )
    (trampoline
      (type "stationary")
      (z-pos 50)
      (x 3616)
      (y 1504)
    )
  )
)
